<svg xmlns="http://www.w3.org/2000/svg" xml:space="preserve" width="512" height="512" style="enable-background:new 0 0 512 512" viewBox="0 0 24 24"><path fill="#63c" d="M10.75 4v4A2.748 2.748 0 0 1 8 10.75H4a2.748 2.748 0 0 1-2.6-1.86A2.64 2.64 0 0 1 1.25 8V4A2.748 2.748 0 0 1 4 1.25h4a2.64 2.64 0 0 1 .89.15A2.748 2.748 0 0 1 10.75 4z" data-original="#1494eb"/><path fill="#ffcb03" d="M22.75 6a4.748 4.748 0 0 1-8.62 2.75A4.7 4.7 0 0 1 13.25 6 4.754 4.754 0 0 1 18 1.25 4.756 4.756 0 0 1 22.75 6z" data-original="#ffcb03"/><path fill="#63f" d="M8.89 1.4A9 9 0 0 1 1.4 8.89 2.64 2.64 0 0 1 1.25 8V4A2.748 2.748 0 0 1 4 1.25h4a2.64 2.64 0 0 1 .89.15z" data-original="#46bcfc"/><path fill="#ffd869" d="M20.75 2.13a9.05 9.05 0 0 1-6.62 6.62A4.7 4.7 0 0 1 13.25 6 4.754 4.754 0 0 1 18 1.25a4.7 4.7 0 0 1 2.75.88z" data-original="#ffd869"/><path fill="#63c" d="M22.75 16v4A2.748 2.748 0 0 1 20 22.75h-4A2.748 2.748 0 0 1 13.25 20v-4A2.748 2.748 0 0 1 16 13.25h4a2.611 2.611 0 0 1 .69.09A2.737 2.737 0 0 1 22.75 16zm-12 0v4A2.748 2.748 0 0 1 8 22.75H4A2.748 2.748 0 0 1 1.25 20v-4A2.748 2.748 0 0 1 4 13.25h4a2.611 2.611 0 0 1 .69.09A2.737 2.737 0 0 1 10.75 16z" data-original="#1494eb"/><path fill="#63f" d="M8.69 13.34a9 9 0 0 1-7.44 6.57V16A2.748 2.748 0 0 1 4 13.25h4a2.611 2.611 0 0 1 .69.09zm12 0a9 9 0 0 1-7.44 6.57V16A2.748 2.748 0 0 1 16 13.25h4a2.611 2.611 0 0 1 .69.09z" data-original="#46bcfc"/></svg>