<svg xmlns="http://www.w3.org/2000/svg" xml:space="preserve" width="512" height="512" style="enable-background:new 0 0 512 512" viewBox="0 0 24 24">
  <path fill="#63c" d="M22.75 12a10.745 10.745 0 0 1-20.31 4.9A10.652 10.652 0 0 1 1.25 12 10.759 10.759 0 0 1 12 1.25 10.771 10.771 0 0 1 22.75 12z" data-original="#1494eb"/>
  <path fill="#7148fc" d="M17 4A13 13 0 0 1 4 17a11.463 11.463 0 0 1-1.56-.1A10.652 10.652 0 0 1 1.25 12 10.759 10.759 0 0 1 12 1.25a10.652 10.652 0 0 1 4.9 1.19A11.463 11.463 0 0 1 17 4z" data-original="#46bcfc"/>
  <g fill="#e5f9f8">
    <path d="M12 13.75A3.75 3.75 0 1 1 15.75 10 3.754 3.754 0 0 1 12 13.75zm0-6A2.25 2.25 0 1 0 14.25 10 2.252 2.252 0 0 0 12 7.75z" data-original="#e5f9f8"/>
    <path d="M16 17.75a.75.75 0 0 1-.75-.75 3.25 3.25 0 0 0-6.5 0 .75.75 0 0 1-1.5 0 4.75 4.75 0 0 1 9.5 0 .75.75 0 0 1-.75.75z" data-original="#e5f9f8"/>
  </g>
</svg>
