<svg height="512" viewBox="0 0 24 24" width="512" xmlns="http://www.w3.org/2000/svg"><g id="Layer_2" data-name="Layer 2"><g fill="#f44336"><path d="m18 7h-12a1 1 0 0 0 -1 1v12.5a1.5 1.5 0 0 0 1.5 1.5h11a1.5 1.5 0 0 0 1.5-1.5v-12.5a1 1 0 0 0 -1-1z"/><path d="m18.5 6h-13a1 1 0 0 1 0-2h13a1 1 0 0 1 0 2z"/><path d="m14 6h-4a1 1 0 0 1 -1-1v-2a1 1 0 0 1 1-1h4a1 1 0 0 1 1 1v2a1 1 0 0 1 -1 1z"/></g><path d="m10 17a1 1 0 0 1 -1-1v-3a1 1 0 0 1 2 0v3a1 1 0 0 1 -1 1z" fill="#fff"/><path d="m14 17a1 1 0 0 1 -1-1v-3a1 1 0 0 1 2 0v3a1 1 0 0 1 -1 1z" fill="#fff"/></g></svg>