<svg xmlns="http://www.w3.org/2000/svg" version="1.1" xmlns:xlink="http://www.w3.org/1999/xlink" xmlns:svgjs="http://svgjs.com/svgjs" width="512" height="512" x="0" y="0" viewBox="0 0 24 24" style="enable-background:new 0 0 512 512" xml:space="preserve" class=""><g><g data-name="Layer 2"><path fill="#6633ff" d="M20 22H4a1 1 0 0 1 0-2h16a1 1 0 0 1 0 2zM19.49 8.17 16.66 11l-6.78 6.78a2 2 0 0 1-1.42.58H5.14a1.5 1.5 0 0 1-1.5-1.5v-3.32a2 2 0 0 1 .58-1.42l9.61-9.61a2 2 0 0 1 2.83 0l2.83 2.83a2 2 0 0 1 0 2.83z" data-original="#2196f3"></path><path fill="#ffcc33" d="M19.49 8.17 17.66 10 12 4.34l1.83-1.83a2 2 0 0 1 2.83 0l2.83 2.83a2 2 0 0 1 0 2.83z" data-original="#ffc533" class=""></path></g></g></svg>