<svg height="512" viewBox="0 0 32 32" width="512" xmlns="http://www.w3.org/2000/svg"><g id="Layer_2" data-name="Layer 2"><rect fill="#ffcc5c" height="21" rx="2" width="28" x="2" y="5"/><rect fill="#ffdc78" height="19" rx="2" width="28" x="2" y="5"/><path d="m13.12 15.21-1.56 1.29-3.92 3.27a1.025 1.025 0 0 1 -.64.23.99.99 0 0 1 -.77-.36 1.01 1.01 0 0 1 .13-1.41l3.66-3.05 1.55-1.3z" fill="#ffcc5c"/><path d="m25.77 19.64a.99.99 0 0 1 -.77.36 1.025 1.025 0 0 1 -.64-.23l-3.92-3.27-1.56-1.29 1.55-1.33 1.55 1.3 3.66 3.05a1.01 1.01 0 0 1 .13 1.41z" fill="#ffcc5c"/><path d="m30 7v1.31l-6.55 5.61-1.47 1.26-.16.14-1.38 1.18-1.07.92-1.42 1.22a2.969 2.969 0 0 1 -3.9 0l-2.49-2.14-.55-.47-.99-.85-8.02-6.87v-1.31a2.006 2.006 0 0 1 2-2h24a2.006 2.006 0 0 1 2 2z" fill="#f9ac00"/></g></svg>