<svg xmlns="http://www.w3.org/2000/svg" xml:space="preserve" width="512" height="512" style="enable-background:new 0 0 512 512" viewBox="0 0 24 24">
  <path fill="#63c" d="M21.58 15.29a2.744 2.744 0 0 1-4.03 3.09l-.19-.11a8.494 8.494 0 0 1-2.61 1.5V20a2.75 2.75 0 0 1-5.5 0v-.23a8.494 8.494 0 0 1-2.61-1.5l-.19.11a2.755 2.755 0 0 1-3.76-1 2.183 2.183 0 0 1-.21-.47 2.753 2.753 0 0 1 1.22-3.29l.19-.12a8.106 8.106 0 0 1 0-3l-.19-.12a2.761 2.761 0 0 1-1.01-3.76 2.755 2.755 0 0 1 3.76-1l.19.11a8.3 8.3 0 0 1 2.61-1.5V4a2.75 2.75 0 0 1 5.5 0v.23a8.1 8.1 0 0 1 2.17 1.16c.15.11.3.22.44.34l.19-.11a2.744 2.744 0 0 1 4.03 3.09 2.722 2.722 0 0 1-1.28 1.67l-.19.12a8.106 8.106 0 0 1 0 3l.19.12a2.722 2.722 0 0 1 1.28 1.67z" data-original="#5622a0"/>
  <path fill="#7148fc" d="M16.92 5.39A12.99 12.99 0 0 1 4 17a12.788 12.788 0 0 1-1.52-.09 2.753 2.753 0 0 1 1.22-3.29l.19-.12a8.106 8.106 0 0 1 0-3l-.19-.12a2.761 2.761 0 0 1-1.01-3.76 2.755 2.755 0 0 1 3.76-1l.19.11a8.3 8.3 0 0 1 2.61-1.5V4a2.75 2.75 0 0 1 5.5 0v.23a8.1 8.1 0 0 1 2.17 1.16z" data-original="#7549ba"/>
  <path fill="#d4e8e7" d="M16.75 12a4.744 4.744 0 1 1-.86-2.73 4.754 4.754 0 0 1 .86 2.73z" data-original="#d4e8e7"/>
  <path fill="#e5f9f8" d="M15.89 9.27a13.106 13.106 0 0 1-6.62 6.62 4.752 4.752 0 1 1 6.62-6.62z" data-original="#e5f9f8"/>
</svg>
